<svg version="1.1" xmlns="http://www.w3.org/2000/svg" xmlns:xlink="http://www.w3.org/1999/xlink" width="47" height="70" viewBox="0,0,171.875,256"><g fill="#d60c0c" fill-rule="evenodd" stroke="none" stroke-width="1" stroke-linecap="butt" stroke-linejoin="miter" stroke-miterlimit="10" stroke-dasharray="" stroke-dashoffset="0" font-family="none" font-weight="none" font-size="none" text-anchor="none" style="mix-blend-mode: normal"><g transform="translate(-0.7499,6.82464) scale(3.65714,3.65714)"><path transform="translate(-6.08854,20.34928) rotate(-30)" d="M25.121,0.68c0.02191,0.00584 0.04359,0.01252 0.065,0.02h0.05c0.452,0.1 0.803,0.349 1.104,0.648c0.105,0.104 0.197,0.212 0.276,0.326c-0.097,-0.414 -0.286,-0.784 -0.616,-1.074l5.73,5.886l3.513,3.606c0.54,0.53 0.757,1.167 0.757,1.91c0,0.742 -0.27,1.325 -0.81,1.856c-0.541,0.53 -1.19,0.742 -1.947,0.742c-0.74148,0.01561 -1.45261,-0.29428 -1.946,-0.848l-3.513,-3.607l-0.791,-0.815v26.861c0,3.739 -1.305,6.879 -3.964,9.471c-2.66,2.642 -5.82,3.938 -9.533,3.938c-3.712,0 -6.873,-1.296 -9.532,-3.938c-2.66,-2.592 -3.964,-5.782 -3.964,-9.471c0,-3.689 1.304,-6.829 3.964,-9.471c2.609,-2.642 5.82,-3.938 9.532,-3.938c3.211,0 6.02,0.997 8.48,2.941v-22.68c0,-0.648 0.2,-1.197 0.601,-1.645c0.05,0 0.05,-0.05 0.1,-0.1c0.353,-0.35 0.753,-0.598 1.206,-0.698h0.853c0.129,0.043 0.257,0.049 0.386,0.08zM24.637,0.1h0.063h-0.063c0.105,0.03 0.209,0.065 0.313,0.1c-0.15,-0.05 -0.3,-0.075 -0.45,-0.1h-0.2h0.2c-0.15,-0.025 -0.3,-0.05 -0.45,-0.1c0.196,0 0.392,0.043 0.587,0.1z"></path></g></g></svg>